version 1
nodes
0 "root" -1
end
skeleton
time 0
0 0 0 0 0 0 0
end
triangles
dummy
0 -48 40 4 0.707107 0 0.707107 -0.4375 0.0625 1 0 1
0 -48 -40 4 0.707107 0 0.707107 0.1875 0.0625 1 0 1
0 -40 -40 4 0.707107 0 0.707107 0.1875 0.125 1 0 1
dummy
0 -40 48 4 0.707107 0 0.707107 -0.5 0.125 1 0 1
0 -48 40 4 0.707107 0 0.707107 -0.4375 0.0625 1 0 1
0 -40 -40 4 0.707107 0 0.707107 0.1875 0.125 1 0 1
dummy
0 -48 -40 -4 0.707107 0 0.707107 0.25 -0.375 1 0 1
0 -48 40 -4 0.707107 0 0.707107 0.25 0.25 1 0 1
0 -40 48 -4 0.707107 0 0.707107 0.3125 0.3125 1 0 1
dummy
0 -40 -40 -4 0.707107 0 0.707107 0.3125 -0.375 1 0 1
0 -48 -40 -4 0.707107 0 0.707107 0.25 -0.375 1 0 1
0 -40 48 -4 0.707107 0 0.707107 0.3125 0.3125 1 0 1
dummy
0 -48 40 4 0.707107 0 0.707107 -0.4375 0.0625 1 0 1
0 -48 40 -4 0.707107 0 0.707107 -0.4375 -0 1 0 1
0 -48 -40 -4 0.707107 0 0.707107 0.1875 0 1 0 1
dummy
0 -48 -40 4 0.707107 0 0.707107 0.1875 0.0625 1 0 1
0 -48 40 4 0.707107 0 0.707107 -0.4375 0.0625 1 0 1
0 -48 -40 -4 0.707107 0 0.707107 0.1875 0 1 0 1
dummy
0 -48 -40 4 0.707107 0 0.707107 0.25 0.0625 1 0 1
0 -48 -40 -4 0.707107 0 0.707107 0.25 -0 1 0 1
0 -40 -40 -4 0.707107 0 0.707107 0.3125 -0 1 0 1
dummy
0 -40 -40 4 0.707107 0 0.707107 0.3125 0.0625 1 0 1
0 -48 -40 4 0.707107 0 0.707107 0.25 0.0625 1 0 1
0 -40 -40 -4 0.707107 0 0.707107 0.3125 -0 1 0 1
dummy
0 -40 -40 4 0.707107 0 0.707107 0.1875 0.125 1 0 1
0 -40 -40 -4 0.707107 0 0.707107 0.1875 0.1875 1 0 1
0 -40 48 -4 0.707107 0 0.707107 -0.5 0.1875 1 0 1
dummy
0 -40 48 4 0.707107 0 0.707107 -0.5 0.125 1 0 1
0 -40 -40 4 0.707107 0 0.707107 0.1875 0.125 1 0 1
0 -40 48 -4 0.707107 0 0.707107 -0.5 0.1875 1 0 1
dummy
0 -40 48 4 0.707107 0 0.707107 -0.0214465 0.441942 1 0 1
0 -40 48 -4 0.707107 0 0.707107 -0.0839465 0.441942 1 0 1
0 -48 40 -4 0.707107 0 0.707107 -0.0839465 0.353554 1 0 1
dummy
0 -48 40 4 0.707107 0 0.707107 -0.0214465 0.353554 1 0 1
0 -40 48 4 0.707107 0 0.707107 -0.0214465 0.441942 1 0 1
0 -48 40 -4 0.707107 0 0.707107 -0.0839465 0.353554 1 0 1
dummy
0 40 48 4 -0.353553 0.612372 0.707107 -1.1875 0.0625 1 0 1
0 -40 48 4 -0.353553 0.612372 0.707107 -0.5625 0.0625 1 0 1
0 -40 40 4 -0.353553 0.612372 0.707107 -0.5625 0.125 1 0 1
dummy
0 48 40 4 -0.353553 0.612372 0.707107 -1.25 0.125 1 0 1
0 40 48 4 -0.353553 0.612372 0.707107 -1.1875 0.0625 1 0 1
0 -40 40 4 -0.353553 0.612372 0.707107 -0.5625 0.125 1 0 1
dummy
0 48 40 -4 -0.353553 0.612372 0.707107 1 0.25 1 0 1
0 -40 40 -4 -0.353553 0.612372 0.707107 0.3125 0.25 1 0 1
0 -40 48 -4 -0.353553 0.612372 0.707107 0.3125 0.3125 1 0 1
dummy
0 40 48 -4 -0.353553 0.612372 0.707107 0.9375 0.3125 1 0 1
0 48 40 -4 -0.353553 0.612372 0.707107 1 0.25 1 0 1
0 -40 48 -4 -0.353553 0.612372 0.707107 0.3125 0.3125 1 0 1
dummy
0 -40 48 4 -0.353553 0.612372 0.707107 -0.5 0.0625 1 0 1
0 -40 48 -4 -0.353553 0.612372 0.707107 -0.5 -0 1 0 1
0 -40 40 -4 -0.353553 0.612372 0.707107 -0.4375 -0 1 0 1
dummy
0 -40 40 4 -0.353553 0.612372 0.707107 -0.4375 0.0625 1 0 1
0 -40 48 4 -0.353553 0.612372 0.707107 -0.5 0.0625 1 0 1
0 -40 40 -4 -0.353553 0.612372 0.707107 -0.4375 -0 1 0 1
dummy
0 40 48 4 -0.353553 0.612372 0.707107 -1.1875 0.0625 1 0 1
0 40 48 -4 -0.353553 0.612372 0.707107 -1.1875 -0 1 0 1
0 -40 48 -4 -0.353553 0.612372 0.707107 -0.5625 -0 1 0 1
dummy
0 -40 48 4 -0.353553 0.612372 0.707107 -0.5625 0.0625 1 0 1
0 40 48 4 -0.353553 0.612372 0.707107 -1.1875 0.0625 1 0 1
0 -40 48 -4 -0.353553 0.612372 0.707107 -0.5625 -0 1 0 1
dummy
0 -40 40 4 -0.353553 0.612372 0.707107 -0.5625 0.125 1 0 1
0 -40 40 -4 -0.353553 0.612372 0.707107 -0.5625 0.1875 1 0 1
0 48 40 -4 -0.353553 0.612372 0.707107 -1.25 0.1875 1 0 1
dummy
0 48 40 4 -0.353553 0.612372 0.707107 -1.25 0.125 1 0 1
0 -40 40 4 -0.353553 0.612372 0.707107 -0.5625 0.125 1 0 1
0 48 40 -4 -0.353553 0.612372 0.707107 -1.25 0.1875 1 0 1
dummy
0 48 40 4 -0.353553 0.612372 0.707107 1 -0.9375 1 0 1
0 48 40 -4 -0.353553 0.612372 0.707107 0.9375 -0.9375 1 0 1
0 40 48 -4 -0.353553 0.612372 0.707107 0.9375 -1 1 0 1
dummy
0 40 48 4 -0.353553 0.612372 0.707107 1 -1 1 0 1
0 48 40 4 -0.353553 0.612372 0.707107 1 -0.9375 1 0 1
0 40 48 -4 -0.353553 0.612372 0.707107 0.9375 -1 1 0 1
dummy
0 48 -40 4 -0.353553 -0.612372 0.707107 -0.9375 -0.9375 1 0 1
0 48 40 4 -0.353553 -0.612372 0.707107 -0.3125 -0.9375 1 0 1
0 40 40 4 -0.353553 -0.612372 0.707107 -0.3125 -0.875 1 0 1
dummy
0 40 -48 4 -0.353553 -0.612372 0.707107 -1 -0.875 1 0 1
0 48 -40 4 -0.353553 -0.612372 0.707107 -0.9375 -0.9375 1 0 1
0 40 40 4 -0.353553 -0.612372 0.707107 -0.3125 -0.875 1 0 1
dummy
0 48 40 -4 -0.353553 -0.612372 0.707107 1 0.25 1 0 1
0 48 -40 -4 -0.353553 -0.612372 0.707107 1 -0.375 1 0 1
0 40 -48 -4 -0.353553 -0.612372 0.707107 0.9375 -0.4375 1 0 1
dummy
0 40 40 -4 -0.353553 -0.612372 0.707107 0.9375 0.25 1 0 1
0 48 40 -4 -0.353553 -0.612372 0.707107 1 0.25 1 0 1
0 40 -48 -4 -0.353553 -0.612372 0.707107 0.9375 -0.4375 1 0 1
dummy
0 48 -40 4 -0.353553 -0.612372 0.707107 -0.9375 0.0625 1 0 1
0 48 -40 -4 -0.353553 -0.612372 0.707107 -0.9375 -0 1 0 1
0 48 40 -4 -0.353553 -0.612372 0.707107 -0.3125 -0 1 0 1
dummy
0 48 40 4 -0.353553 -0.612372 0.707107 -0.3125 0.0625 1 0 1
0 48 -40 4 -0.353553 -0.612372 0.707107 -0.9375 0.0625 1 0 1
0 48 40 -4 -0.353553 -0.612372 0.707107 -0.3125 -0 1 0 1
dummy
0 48 40 4 -0.353553 -0.612372 0.707107 1 0.0625 1 0 1
0 48 40 -4 -0.353553 -0.612372 0.707107 1 -0 1 0 1
0 40 40 -4 -0.353553 -0.612372 0.707107 0.9375 -0 1 0 1
dummy
0 40 40 4 -0.353553 -0.612372 0.707107 0.9375 0.0625 1 0 1
0 48 40 4 -0.353553 -0.612372 0.707107 1 0.0625 1 0 1
0 40 40 -4 -0.353553 -0.612372 0.707107 0.9375 -0 1 0 1
dummy
0 40 40 4 -0.353553 -0.612372 0.707107 -0.3125 -0.875 1 0 1
0 40 40 -4 -0.353553 -0.612372 0.707107 -0.3125 -0.8125 1 0 1
0 40 -48 -4 -0.353553 -0.612372 0.707107 -1 -0.8125 1 0 1
dummy
0 40 -48 4 -0.353553 -0.612372 0.707107 -1 -0.875 1 0 1
0 40 40 4 -0.353553 -0.612372 0.707107 -0.3125 -0.875 1 0 1
0 40 -48 -4 -0.353553 -0.612372 0.707107 -1 -0.8125 1 0 1
dummy
0 40 -48 4 -0.353553 -0.612372 0.707107 -0.316941 -0.353554 1 0 1
0 40 -48 -4 -0.353553 -0.612372 0.707107 -0.379441 -0.353554 1 0 1
0 48 -40 -4 -0.353553 -0.612372 0.707107 -0.379441 -0.441942 1 0 1
dummy
0 48 -40 4 -0.353553 -0.612372 0.707107 -0.316941 -0.441942 1 0 1
0 40 -48 4 -0.353553 -0.612372 0.707107 -0.316941 -0.353554 1 0 1
0 48 -40 -4 -0.353553 -0.612372 0.707107 -0.379441 -0.441942 1 0 1
dummy
0 -48 -40 4 0.707107 0 -0.707107 0.25 0.125 1 0 1
0 -40 -48 4 0.707107 0 -0.707107 0.3125 0.0625 1 0 1
0 40 -48 4 0.707107 0 -0.707107 0.9375 0.0625 1 0 1
dummy
0 40 -40 4 0.707107 0 -0.707107 0.9375 0.125 1 0 1
0 -48 -40 4 0.707107 0 -0.707107 0.25 0.125 1 0 1
0 40 -48 4 0.707107 0 -0.707107 0.9375 0.0625 1 0 1
dummy
0 40 -48 -4 0.707107 0 -0.707107 0.9375 -0.4375 1 0 1
0 -40 -48 -4 0.707107 0 -0.707107 0.3125 -0.4375 1 0 1
0 -48 -40 -4 0.707107 0 -0.707107 0.25 -0.375 1 0 1
dummy
0 40 -40 -4 0.707107 0 -0.707107 0.9375 -0.375 1 0 1
0 40 -48 -4 0.707107 0 -0.707107 0.9375 -0.4375 1 0 1
0 -48 -40 -4 0.707107 0 -0.707107 0.25 -0.375 1 0 1
dummy
0 -40 -48 4 0.707107 0 -0.707107 0.3125 0.0625 1 0 1
0 -40 -48 -4 0.707107 0 -0.707107 0.3125 -0 1 0 1
0 40 -48 -4 0.707107 0 -0.707107 0.9375 -0 1 0 1
dummy
0 40 -48 4 0.707107 0 -0.707107 0.9375 0.0625 1 0 1
0 -40 -48 4 0.707107 0 -0.707107 0.3125 0.0625 1 0 1
0 40 -48 -4 0.707107 0 -0.707107 0.9375 -0 1 0 1
dummy
0 40 -48 4 0.707107 0 -0.707107 -0.4375 0.0625 1 0 1
0 40 -48 -4 0.707107 0 -0.707107 -0.4375 -0 1 0 1
0 40 -40 -4 0.707107 0 -0.707107 -0.375 -0 1 0 1
dummy
0 40 -40 4 0.707107 0 -0.707107 -0.375 0.0625 1 0 1
0 40 -48 4 0.707107 0 -0.707107 -0.4375 0.0625 1 0 1
0 40 -40 -4 0.707107 0 -0.707107 -0.375 -0 1 0 1
dummy
0 40 -40 4 0.707107 0 -0.707107 0.9375 0.125 1 0 1
0 40 -40 -4 0.707107 0 -0.707107 0.9375 0.1875 1 0 1
0 -48 -40 -4 0.707107 0 -0.707107 0.25 0.1875 1 0 1
dummy
0 -48 -40 4 0.707107 0 -0.707107 0.25 0.125 1 0 1
0 40 -40 4 0.707107 0 -0.707107 0.9375 0.125 1 0 1
0 -48 -40 -4 0.707107 0 -0.707107 0.25 0.1875 1 0 1
dummy
0 -48 -40 4 0.707107 0 -0.707107 -0.15533 -0.441943 1 0 1
0 -48 -40 -4 0.707107 0 -0.707107 -0.21783 -0.441943 1 0 1
0 -40 -48 -4 0.707107 0 -0.707107 -0.21783 -0.530331 1 0 1
dummy
0 -40 -48 4 0.707107 0 -0.707107 -0.15533 -0.530331 1 0 1
0 -48 -40 4 0.707107 0 -0.707107 -0.15533 -0.441943 1 0 1
0 -40 -48 -4 0.707107 0 -0.707107 -0.21783 -0.530331 1 0 1
dummy
0 40 -40 -2 -0.353553 0.612372 -0.707107 2.5 -3 1 0 1
0 40 40 -2 -0.353553 0.612372 -0.707107 2.5 2 1 0 1
0 -40 40 -2 -0.353553 0.612372 -0.707107 -2.5 2 1 0 1
dummy
0 -40 -40 -2 -0.353553 0.612372 -0.707107 -2.5 -3 1 0 1
0 40 -40 -2 -0.353553 0.612372 -0.707107 2.5 -3 1 0 1
0 -40 40 -2 -0.353553 0.612372 -0.707107 -2.5 2 1 0 1
dummy
0 -40 -40 -4 -0.353553 0.612372 -0.707107 0.3125 -0.375 1 0 1
0 -40 40 -4 -0.353553 0.612372 -0.707107 0.3125 0.25 1 0 1
0 40 40 -4 -0.353553 0.612372 -0.707107 0.9375 0.25 1 0 1
dummy
0 40 -40 -4 -0.353553 0.612372 -0.707107 0.9375 -0.375 1 0 1
0 -40 -40 -4 -0.353553 0.612372 -0.707107 0.3125 -0.375 1 0 1
0 40 40 -4 -0.353553 0.612372 -0.707107 0.9375 0.25 1 0 1
dummy
0 40 40 -2 -0.353553 0.612372 -0.707107 2.5 0.125 1 0 1
0 40 40 -4 -0.353553 0.612372 -0.707107 2.5 -0 1 0 1
0 -40 40 -4 -0.353553 0.612372 -0.707107 -2.5 -0 1 0 1
dummy
0 -40 40 -2 -0.353553 0.612372 -0.707107 -2.5 0.125 1 0 1
0 40 40 -2 -0.353553 0.612372 -0.707107 2.5 0.125 1 0 1
0 -40 40 -4 -0.353553 0.612372 -0.707107 -2.5 -0 1 0 1
dummy
0 40 -40 -2 -0.353553 0.612372 -0.707107 -3 0.125 1 0 1
0 40 -40 -4 -0.353553 0.612372 -0.707107 -3 -0 1 0 1
0 40 40 -4 -0.353553 0.612372 -0.707107 2 -0 1 0 1
dummy
0 40 40 -2 -0.353553 0.612372 -0.707107 2 0.125 1 0 1
0 40 -40 -2 -0.353553 0.612372 -0.707107 -3 0.125 1 0 1
0 40 40 -4 -0.353553 0.612372 -0.707107 2 -0 1 0 1
dummy
0 -40 -40 -2 -0.353553 0.612372 -0.707107 -2.5 0.125 1 0 1
0 -40 -40 -4 -0.353553 0.612372 -0.707107 -2.5 -0 1 0 1
0 40 -40 -4 -0.353553 0.612372 -0.707107 2.5 -0 1 0 1
dummy
0 40 -40 -2 -0.353553 0.612372 -0.707107 2.5 0.125 1 0 1
0 -40 -40 -2 -0.353553 0.612372 -0.707107 -2.5 0.125 1 0 1
0 40 -40 -4 -0.353553 0.612372 -0.707107 2.5 -0 1 0 1
dummy
0 -40 40 -2 -0.353553 0.612372 -0.707107 2 0.125 1 0 1
0 -40 40 -4 -0.353553 0.612372 -0.707107 2 -0 1 0 1
0 -40 -40 -4 -0.353553 0.612372 -0.707107 -3 -0 1 0 1
dummy
0 -40 -40 -2 -0.353553 0.612372 -0.707107 -3 0.125 1 0 1
0 -40 40 -2 -0.353553 0.612372 -0.707107 2 0.125 1 0 1
0 -40 -40 -4 -0.353553 0.612372 -0.707107 -3 -0 1 0 1
end
