version 1
nodes
0 "root" -1
end
skeleton
time 0
0 0 0 0 0 0 0
end
triangles
woodm
0 -48 40 4 0 0 1 -0.4375 0.0625 1 0 1
0 -48 -40 4 0 0 1 0.1875 0.0625 1 0 1
0 -40 -40 4 0 0 1 0.1875 0.125 1 0 1
woodm
0 -40 48 4 0 0 1 -0.5 0.125 1 0 1
0 -48 40 4 0 0 1 -0.4375 0.0625 1 0 1
0 -40 -40 4 0 0 1 0.1875 0.125 1 0 1
woodm
0 -48 -40 -4 0 0 -1 0.25 -0.375 1 0 1
0 -48 40 -4 0 0 -1 0.25 0.25 1 0 1
0 -40 48 -4 0 0 -1 0.3125 0.3125 1 0 1
woodm
0 -40 -40 -4 0 0 -1 0.3125 -0.375 1 0 1
0 -48 -40 -4 0 0 -1 0.25 -0.375 1 0 1
0 -40 48 -4 0 0 -1 0.3125 0.3125 1 0 1
woodm
0 -48 40 4 -0.967538 0.252725 0 -0.4375 0.0625 1 0 1
0 -48 40 -4 -0.862856 0.505449 0 -0.4375 -0 1 0 1
0 -48 -40 -4 -0.967538 -0.252725 0 0.1875 0 1 0 1
woodm
0 -48 -40 4 -0.862856 -0.505449 0 0.1875 0.0625 1 0 1
0 -48 40 4 -0.967538 0.252725 0 -0.4375 0.0625 1 0 1
0 -48 -40 -4 -0.967538 -0.252725 0 0.1875 0 1 0 1
woodm
0 -48 -40 4 -0.382683 -0.923879 0 0.25 0.0625 1 0 1
0 -48 -40 -4 -0.382683 -0.923879 0 0.25 -0 1 0 1
0 -40 -40 -4 0 -1 0 0.3125 -0 1 0 1
woodm
0 -40 -40 4 0 -1 0 0.3125 0.0625 1 0 1
0 -48 -40 4 -0.382683 -0.923879 0 0.25 0.0625 1 0 1
0 -40 -40 -4 0 -1 0 0.3125 -0 1 0 1
woodm
0 -40 -40 4 1 0 0 0.1875 0.125 1 0 1
0 -40 -40 -4 1 0 0 0.1875 0.1875 1 0 1
0 -40 48 -4 1 0 0 -0.5 0.1875 1 0 1
woodm
0 -40 48 4 1 0 0 -0.5 0.125 1 0 1
0 -40 -40 4 1 0 0 0.1875 0.125 1 0 1
0 -40 48 -4 1 0 0 -0.5 0.1875 1 0 1
woodm
0 -40 48 4 -0.816497 0.57735 0 -0.0214465 0.441942 1 0 1
0 -40 48 -4 -0.533402 0.845862 0 -0.0839465 0.441942 1 0 1
0 -48 40 -4 -0.862856 0.505449 0 -0.0839465 0.353554 1 0 1
woodm
0 -48 40 4 -0.967538 0.252725 0 -0.0214465 0.353554 1 0 1
0 -40 48 4 -0.816497 0.57735 0 -0.0214465 0.441942 1 0 1
0 -48 40 -4 -0.862856 0.505449 0 -0.0839465 0.353554 1 0 1
woodm
0 40 48 4 0 0 1 -1.1875 0.0625 1 0 1
0 -40 48 4 0 0 1 -0.5625 0.0625 1 0 1
0 -40 40 4 0 0 1 -0.5625 0.125 1 0 1
woodm
0 48 40 4 0 0 1 -1.25 0.125 1 0 1
0 40 48 4 0 0 1 -1.1875 0.0625 1 0 1
0 -40 40 4 0 0 1 -0.5625 0.125 1 0 1
woodm
0 48 40 -4 0 0 -1 1 0.25 1 0 1
0 -40 40 -4 0 0 -1 0.3125 0.25 1 0 1
0 -40 48 -4 0 0 -1 0.3125 0.3125 1 0 1
woodm
0 40 48 -4 0 0 -1 0.9375 0.3125 1 0 1
0 48 40 -4 0 0 -1 1 0.25 1 0 1
0 -40 48 -4 0 0 -1 0.3125 0.3125 1 0 1
woodm
0 -40 48 4 -0.923879 0.382683 0 -0.5 0.0625 1 0 1
0 -40 48 -4 -0.923879 0.382683 0 -0.5 -0 1 0 1
0 -40 40 -4 -1 0 0 -0.4375 -0 1 0 1
woodm
0 -40 40 4 -1 0 0 -0.4375 0.0625 1 0 1
0 -40 48 4 -0.923879 0.382683 0 -0.5 0.0625 1 0 1
0 -40 40 -4 -1 0 0 -0.4375 -0 1 0 1
woodm
0 40 48 4 0.252725 0.967538 0 -1.1875 0.0625 1 0 1
0 40 48 -4 0.505449 0.862856 0 -1.1875 -0 1 0 1
0 -40 48 -4 -0.252725 0.967538 0 -0.5625 -0 1 0 1
woodm
0 -40 48 4 -0.505449 0.862856 0 -0.5625 0.0625 1 0 1
0 40 48 4 0.252725 0.967538 0 -1.1875 0.0625 1 0 1
0 -40 48 -4 -0.252725 0.967538 0 -0.5625 -0 1 0 1
woodm
0 -40 40 4 0 -1 0 -0.5625 0.125 1 0 1
0 -40 40 -4 0 -1 0 -0.5625 0.1875 1 0 1
0 48 40 -4 0 -1 0 -1.25 0.1875 1 0 1
woodm
0 48 40 4 0 -1 0 -1.25 0.125 1 0 1
0 -40 40 4 0 -1 0 -0.5625 0.125 1 0 1
0 48 40 -4 0 -1 0 -1.25 0.1875 1 0 1
woodm
0 48 40 4 0.57735 0.816497 0 1 -0.9375 1 0 1
0 48 40 -4 0.845862 0.533402 0 0.9375 -0.9375 1 0 1
0 40 48 -4 0.505449 0.862856 0 0.9375 -1 1 0 1
woodm
0 40 48 4 0.252725 0.967538 0 1 -1 1 0 1
0 48 40 4 0.57735 0.816497 0 1 -0.9375 1 0 1
0 40 48 -4 0.505449 0.862856 0 0.9375 -1 1 0 1
woodm
0 48 -40 4 0 0 1 -0.9375 -0.9375 1 0 1
0 48 40 4 0 0 1 -0.3125 -0.9375 1 0 1
0 40 40 4 0 0 1 -0.3125 -0.875 1 0 1
woodm
0 40 -48 4 0 0 1 -1 -0.875 1 0 1
0 48 -40 4 0 0 1 -0.9375 -0.9375 1 0 1
0 40 40 4 0 0 1 -0.3125 -0.875 1 0 1
woodm
0 48 40 -4 0 0 -1 1 0.25 1 0 1
0 48 -40 -4 0 0 -1 1 -0.375 1 0 1
0 40 -48 -4 0 0 -1 0.9375 -0.4375 1 0 1
woodm
0 40 40 -4 0 0 -1 0.9375 0.25 1 0 1
0 48 40 -4 0 0 -1 1 0.25 1 0 1
0 40 -48 -4 0 0 -1 0.9375 -0.4375 1 0 1
woodm
0 48 -40 4 0.967538 -0.252725 0 -0.9375 0.0625 1 0 1
0 48 -40 -4 0.862856 -0.505449 0 -0.9375 -0 1 0 1
0 48 40 -4 0.967538 0.252725 0 -0.3125 -0 1 0 1
woodm
0 48 40 4 0.862856 0.505449 0 -0.3125 0.0625 1 0 1
0 48 -40 4 0.967538 -0.252725 0 -0.9375 0.0625 1 0 1
0 48 40 -4 0.967538 0.252725 0 -0.3125 -0 1 0 1
woodm
0 48 40 4 0.382683 0.923879 0 1 0.0625 1 0 1
0 48 40 -4 0.382683 0.923879 0 1 -0 1 0 1
0 40 40 -4 0 1 0 0.9375 -0 1 0 1
woodm
0 40 40 4 0 1 0 0.9375 0.0625 1 0 1
0 48 40 4 0.382683 0.923879 0 1 0.0625 1 0 1
0 40 40 -4 0 1 0 0.9375 -0 1 0 1
woodm
0 40 40 4 -1 0 0 -0.3125 -0.875 1 0 1
0 40 40 -4 -1 0 0 -0.3125 -0.8125 1 0 1
0 40 -48 -4 -1 0 0 -1 -0.8125 1 0 1
woodm
0 40 -48 4 -1 0 0 -1 -0.875 1 0 1
0 40 40 4 -1 0 0 -0.3125 -0.875 1 0 1
0 40 -48 -4 -1 0 0 -1 -0.8125 1 0 1
woodm
0 40 -48 4 0.816497 -0.57735 0 -0.316941 -0.353554 1 0 1
0 40 -48 -4 0.533402 -0.845862 0 -0.379441 -0.353554 1 0 1
0 48 -40 -4 0.862856 -0.505449 0 -0.379441 -0.441942 1 0 1
woodm
0 48 -40 4 0.967538 -0.252725 0 -0.316941 -0.441942 1 0 1
0 40 -48 4 0.816497 -0.57735 0 -0.316941 -0.353554 1 0 1
0 48 -40 -4 0.862856 -0.505449 0 -0.379441 -0.441942 1 0 1
woodm
0 -48 -40 4 0 0 1 0.25 0.125 1 0 1
0 -40 -48 4 0 0 1 0.3125 0.0625 1 0 1
0 40 -48 4 0 0 1 0.9375 0.0625 1 0 1
woodm
0 40 -40 4 0 0 1 0.9375 0.125 1 0 1
0 -48 -40 4 0 0 1 0.25 0.125 1 0 1
0 40 -48 4 0 0 1 0.9375 0.0625 1 0 1
woodm
0 40 -48 -4 0 0 -1 0.9375 -0.4375 1 0 1
0 -40 -48 -4 0 0 -1 0.3125 -0.4375 1 0 1
0 -48 -40 -4 0 0 -1 0.25 -0.375 1 0 1
woodm
0 40 -40 -4 0 0 -1 0.9375 -0.375 1 0 1
0 40 -48 -4 0 0 -1 0.9375 -0.4375 1 0 1
0 -48 -40 -4 0 0 -1 0.25 -0.375 1 0 1
woodm
0 -40 -48 4 -0.252725 -0.967538 0 0.3125 0.0625 1 0 1
0 -40 -48 -4 -0.505449 -0.862856 0 0.3125 -0 1 0 1
0 40 -48 -4 0.252725 -0.967538 0 0.9375 -0 1 0 1
woodm
0 40 -48 4 0.505449 -0.862856 0 0.9375 0.0625 1 0 1
0 -40 -48 4 -0.252725 -0.967538 0 0.3125 0.0625 1 0 1
0 40 -48 -4 0.252725 -0.967538 0 0.9375 -0 1 0 1
woodm
0 40 -48 4 0.923879 -0.382683 0 -0.4375 0.0625 1 0 1
0 40 -48 -4 0.923879 -0.382683 0 -0.4375 -0 1 0 1
0 40 -40 -4 1 0 0 -0.375 -0 1 0 1
woodm
0 40 -40 4 1 0 0 -0.375 0.0625 1 0 1
0 40 -48 4 0.923879 -0.382683 0 -0.4375 0.0625 1 0 1
0 40 -40 -4 1 0 0 -0.375 -0 1 0 1
woodm
0 40 -40 4 0 1 0 0.9375 0.125 1 0 1
0 40 -40 -4 0 1 0 0.9375 0.1875 1 0 1
0 -48 -40 -4 0 1 0 0.25 0.1875 1 0 1
woodm
0 -48 -40 4 0 1 0 0.25 0.125 1 0 1
0 40 -40 4 0 1 0 0.9375 0.125 1 0 1
0 -48 -40 -4 0 1 0 0.25 0.1875 1 0 1
woodm
0 -48 -40 4 -0.57735 -0.816497 0 -0.15533 -0.441943 1 0 1
0 -48 -40 -4 -0.845862 -0.533402 0 -0.21783 -0.441943 1 0 1
0 -40 -48 -4 -0.505449 -0.862856 0 -0.21783 -0.530331 1 0 1
woodm
0 -40 -48 4 -0.252725 -0.967538 0 -0.15533 -0.530331 1 0 1
0 -48 -40 4 -0.57735 -0.816497 0 -0.15533 -0.441943 1 0 1
0 -40 -48 -4 -0.505449 -0.862856 0 -0.21783 -0.530331 1 0 1
woodm
0 -40 -40 -4 0 0 -1 0.3125 -0.375 1 0 1
0 -40 40 -4 0 0 -1 0.3125 0.25 1 0 1
0 40 40 -4 0 0 -1 0.9375 0.25 1 0 1
woodm
0 40 -40 -4 0 0 -1 0.9375 -0.375 1 0 1
0 -40 -40 -4 0 0 -1 0.3125 -0.375 1 0 1
0 40 40 -4 0 0 -1 0.9375 0.25 1 0 1
grounddirt
0 -20 -20 0.5 0.0463663 0.0645917 0.996834 0.46875 -0.21875 1 0 1
0 -40 -20 2.5 0.0807303 0.0433478 0.995793 0.3125 -0.21875 1 0 1
0 -40 -40 1.5 0.049814 -0.000123914 0.998758 0.3125 -0.375 1 0 1
grounddirt
0 -20 -40 1.5 0.0243604 0.0733746 0.997007 0.46875 -0.375 1 0 1
0 -20 -20 0.5 0.0463663 0.0645917 0.996834 0.46875 -0.21875 1 0 1
0 -40 -40 1.5 0.049814 -0.000123914 0.998758 0.3125 -0.375 1 0 1
grounddirt
0 0 -40 3.5 0.0113299 0.171404 0.985135 0.625 -0.375 1 0 1
0 -20 -20 0.5 0.0463663 0.0645917 0.996834 0.46875 -0.21875 1 0 1
0 -20 -40 1.5 0.0243604 0.0733746 0.997007 0.46875 -0.375 1 0 1
grounddirt
0 0 -20 -1.5 0.0118775 0.0858002 0.996242 0.625 -0.21875 1 0 1
0 -20 -20 0.5 0.0463663 0.0645917 0.996834 0.46875 -0.21875 1 0 1
0 0 -40 3.5 0.0113299 0.171404 0.985135 0.625 -0.375 1 0 1
grounddirt
0 20 -20 -1 -0.0407951 0.058446 0.997457 0.78125 -0.21875 1 0 1
0 0 -20 -1.5 0.0118775 0.0858002 0.996242 0.625 -0.21875 1 0 1
0 0 -40 3.5 0.0113299 0.171404 0.985135 0.625 -0.375 1 0 1
grounddirt
0 20 -40 2 -0.0129503 0.135498 0.990693 0.78125 -0.375 1 0 1
0 20 -20 -1 -0.0407951 0.058446 0.997457 0.78125 -0.21875 1 0 1
0 0 -40 3.5 0.0113299 0.171404 0.985135 0.625 -0.375 1 0 1
grounddirt
0 40 -40 1.5 -0.0499357 0.07456 0.995965 0.9375 -0.375 1 0 1
0 20 -20 -1 -0.0407951 0.058446 0.997457 0.78125 -0.21875 1 0 1
0 20 -40 2 -0.0129503 0.135498 0.990693 0.78125 -0.375 1 0 1
grounddirt
0 40 -20 1.5 -0.0933524 0.0310412 0.995149 0.9375 -0.21875 1 0 1
0 20 -20 -1 -0.0407951 0.058446 0.997457 0.78125 -0.21875 1 0 1
0 40 -40 1.5 -0.0499357 0.07456 0.995965 0.9375 -0.375 1 0 1
grounddirt
0 -20 -20 0.5 0.0463663 0.0645917 0.996834 0.46875 -0.21875 1 0 1
0 -40 0 1 0.0992677 0.049515 0.993828 0.3125 -0.0625 1 0 1
0 -40 -20 2.5 0.0807303 0.0433478 0.995793 0.3125 -0.21875 1 0 1
grounddirt
0 -20 0 -1.5 0.0496543 0.0309872 0.998286 0.46875 -0.0625 1 0 1
0 -40 0 1 0.0992677 0.049515 0.993828 0.3125 -0.0625 1 0 1
0 -20 -20 0.5 0.0463663 0.0645917 0.996834 0.46875 -0.21875 1 0 1
grounddirt
0 0 0 -0.5 -0.0266612 -0.0266612 0.999289 0.625 -0.0625 1 0 1
0 -20 0 -1.5 0.0496543 0.0309872 0.998286 0.46875 -0.0625 1 0 1
0 -20 -20 0.5 0.0463663 0.0645917 0.996834 0.46875 -0.21875 1 0 1
grounddirt
0 0 -20 -1.5 0.0118775 0.0858002 0.996242 0.625 -0.21875 1 0 1
0 0 0 -0.5 -0.0266612 -0.0266612 0.999289 0.625 -0.0625 1 0 1
0 -20 -20 0.5 0.0463663 0.0645917 0.996834 0.46875 -0.21875 1 0 1
grounddirt
0 20 -20 -1 -0.0407951 0.058446 0.997457 0.78125 -0.21875 1 0 1
0 0 0 -0.5 -0.0266612 -0.0266612 0.999289 0.625 -0.0625 1 0 1
0 0 -20 -1.5 0.0118775 0.0858002 0.996242 0.625 -0.21875 1 0 1
grounddirt
0 20 0 -1 -0.0576839 -0.0572501 0.996692 0.78125 -0.0625 1 0 1
0 0 0 -0.5 -0.0266612 -0.0266612 0.999289 0.625 -0.0625 1 0 1
0 20 -20 -1 -0.0407951 0.058446 0.997457 0.78125 -0.21875 1 0 1
grounddirt
0 40 0 2 -0.0621065 -0.048544 0.996888 0.9375 -0.0625 1 0 1
0 20 0 -1 -0.0576839 -0.0572501 0.996692 0.78125 -0.0625 1 0 1
0 20 -20 -1 -0.0407951 0.058446 0.997457 0.78125 -0.21875 1 0 1
grounddirt
0 40 -20 1.5 -0.0933524 0.0310412 0.995149 0.9375 -0.21875 1 0 1
0 40 0 2 -0.0621065 -0.048544 0.996888 0.9375 -0.0625 1 0 1
0 20 -20 -1 -0.0407951 0.058446 0.997457 0.78125 -0.21875 1 0 1
grounddirt
0 -20 20 -1 0.0435274 -0.0558559 0.99749 0.46875 0.09375 1 0 1
0 -40 20 0 0.0684249 -0.0682115 0.995322 0.3125 0.09375 1 0 1
0 -40 0 1 0.0992677 0.049515 0.993828 0.3125 -0.0625 1 0 1
grounddirt
0 -20 0 -1.5 0.0496543 0.0309872 0.998286 0.46875 -0.0625 1 0 1
0 -20 20 -1 0.0435274 -0.0558559 0.99749 0.46875 0.09375 1 0 1
0 -40 0 1 0.0992677 0.049515 0.993828 0.3125 -0.0625 1 0 1
grounddirt
0 0 0 -0.5 -0.0266612 -0.0266612 0.999289 0.625 -0.0625 1 0 1
0 -20 20 -1 0.0435274 -0.0558559 0.99749 0.46875 0.09375 1 0 1
0 -20 0 -1.5 0.0496543 0.0309872 0.998286 0.46875 -0.0625 1 0 1
grounddirt
0 0 20 -1 -0.0573904 -0.0329514 0.997808 0.625 0.09375 1 0 1
0 -20 20 -1 0.0435274 -0.0558559 0.99749 0.46875 0.09375 1 0 1
0 0 0 -0.5 -0.0266612 -0.0266612 0.999289 0.625 -0.0625 1 0 1
grounddirt
0 20 20 4 -0.0356558 -0.0105171 0.999309 0.78125 0.09375 1 0 1
0 0 20 -1 -0.0573904 -0.0329514 0.997808 0.625 0.09375 1 0 1
0 0 0 -0.5 -0.0266612 -0.0266612 0.999289 0.625 -0.0625 1 0 1
grounddirt
0 20 0 -1 -0.0576839 -0.0572501 0.996692 0.78125 -0.0625 1 0 1
0 20 20 4 -0.0356558 -0.0105171 0.999309 0.78125 0.09375 1 0 1
0 0 0 -0.5 -0.0266612 -0.0266612 0.999289 0.625 -0.0625 1 0 1
grounddirt
0 40 0 2 -0.0621065 -0.048544 0.996888 0.9375 -0.0625 1 0 1
0 20 20 4 -0.0356558 -0.0105171 0.999309 0.78125 0.09375 1 0 1
0 20 0 -1 -0.0576839 -0.0572501 0.996692 0.78125 -0.0625 1 0 1
grounddirt
0 40 20 0.5 0.0633058 0.00122287 0.997993 0.9375 0.09375 1 0 1
0 20 20 4 -0.0356558 -0.0105171 0.999309 0.78125 0.09375 1 0 1
0 40 0 2 -0.0621065 -0.048544 0.996888 0.9375 -0.0625 1 0 1
grounddirt
0 -20 20 -1 0.0435274 -0.0558559 0.99749 0.46875 0.09375 1 0 1
0 -40 40 3 0.0493865 -0.148159 0.98773 0.3125 0.25 1 0 1
0 -40 20 0 0.0684249 -0.0682115 0.995322 0.3125 0.09375 1 0 1
grounddirt
0 -20 40 2 0.0558271 -0.117649 0.991485 0.46875 0.25 1 0 1
0 -40 40 3 0.0493865 -0.148159 0.98773 0.3125 0.25 1 0 1
0 -20 20 -1 0.0435274 -0.0558559 0.99749 0.46875 0.09375 1 0 1
grounddirt
0 0 40 -0.5 -0.0488165 -0.0125449 0.998729 0.625 0.25 1 0 1
0 -20 40 2 0.0558271 -0.117649 0.991485 0.46875 0.25 1 0 1
0 -20 20 -1 0.0435274 -0.0558559 0.99749 0.46875 0.09375 1 0 1
grounddirt
0 0 20 -1 -0.0573904 -0.0329514 0.997808 0.625 0.09375 1 0 1
0 0 40 -0.5 -0.0488165 -0.0125449 0.998729 0.625 0.25 1 0 1
0 -20 20 -1 0.0435274 -0.0558559 0.99749 0.46875 0.09375 1 0 1
grounddirt
0 20 20 4 -0.0356558 -0.0105171 0.999309 0.78125 0.09375 1 0 1
0 0 40 -0.5 -0.0488165 -0.0125449 0.998729 0.625 0.25 1 0 1
0 0 20 -1 -0.0573904 -0.0329514 0.997808 0.625 0.09375 1 0 1
grounddirt
0 20 40 1 -0.0243531 0.0748039 0.996901 0.78125 0.25 1 0 1
0 0 40 -0.5 -0.0488165 -0.0125449 0.998729 0.625 0.25 1 0 1
0 20 20 4 -0.0356558 -0.0105171 0.999309 0.78125 0.09375 1 0 1
grounddirt
0 40 40 0 0.110639 0.085885 0.990143 0.9375 0.25 1 0 1
0 20 40 1 -0.0243531 0.0748039 0.996901 0.78125 0.25 1 0 1
0 20 20 4 -0.0356558 -0.0105171 0.999309 0.78125 0.09375 1 0 1
grounddirt
0 40 20 0.5 0.0633058 0.00122287 0.997993 0.9375 0.09375 1 0 1
0 40 40 0 0.110639 0.085885 0.990143 0.9375 0.25 1 0 1
0 20 20 4 -0.0356558 -0.0105171 0.999309 0.78125 0.09375 1 0 1
end
